<svg xmlns="http://www.w3.org/2000/svg" version="1.1" xmlns:xlink="http://www.w3.org/1999/xlink" xmlns:svgjs="http://svgjs.dev/svgjs" width="1440" height="560" preserveAspectRatio="none" viewBox="0 0 1440 560"><g mask="url(&quot;#SvgjsMask1000&quot;)" fill="none"><rect width="1440" height="560" x="0" y="0" fill="#0e2a47"></rect><path d="M21.24 224.07L42.71 224.07L42.71 245.54L21.24 245.54z" fill="#d3b714"></path><path d="M120.83 169.63L137.71 169.63L137.71 221.08L120.83 221.08z" stroke="#e73635"></path><path d="M182.73 253.26L189.96 253.26L189.96 267.24L182.73 267.24z" fill="#037b0b"></path><path d="M1242.59 391.97 a27.85 27.85 0 1 0 55.7 0 a27.85 27.85 0 1 0 -55.7 0z" fill="#037b0b"></path><path d="M574.3 333.53a47.85 47.85 0 1 0-95.5-6.19z" fill="#d3b714"></path><path d="M1210.71 357.19L1242.22 357.19L1242.22 366.62L1210.71 366.62z" fill="#d3b714"></path><path d="M767.35 7.58L820.19 7.58L820.19 19.41L767.35 19.41z" fill="#037b0b"></path><path d="M1283.3 152.63a9.42 9.42 0 1 0-1.55 18.77z" fill="#e73635"></path><path d="M612.88 373.67L616.85 373.67L616.85 377.64L612.88 377.64z" stroke="#d3b714"></path><path d="M1238.36 220.37a0.96 0.96 0 1 0 0.78-1.75z" stroke="#d3b714"></path><path d="M494.1 79.07L532.37 79.07L532.37 117.34L494.1 117.34z" stroke="#037b0b"></path><path d="M376.22 275.45 a39.89 39.89 0 1 0 79.78 0 a39.89 39.89 0 1 0 -79.78 0z" fill="#e73635"></path><path d="M350.6 46.92L357.94 46.92L357.94 54.26L350.6 54.26z" stroke="#d3b714"></path><path d="M439.93 127.41L483.45 127.41L483.45 134.53L439.93 134.53z" stroke="#037b0b"></path><path d="M598.78 171.4L613.09 171.4L613.09 185.71L598.78 185.71z" stroke="#037b0b"></path><path d="M860.62 369.19L873.93 369.19L873.93 370L860.62 370z" fill="#d3b714"></path><path d="M1426.8 309.19a30.83 30.83 0 1 0-57.8 21.49z" stroke="#e73635"></path><path d="M1147.56 287.85 a42.01 42.01 0 1 0 84.02 0 a42.01 42.01 0 1 0 -84.02 0z" fill="#e73635"></path><path d="M1172.99 159.81a41.54 41.54 0 1 0 74.33-37.11z" stroke="#e73635"></path><path d="M905.43 118.38L927.85 118.38L927.85 153.68L905.43 153.68z" fill="#d3b714"></path><path d="M1263.31 552.59L1285.98 552.59L1285.98 567.27L1263.31 567.27z" fill="#d3b714"></path><path d="M322.69 434.52L334.81 434.52L334.81 446.64L322.69 446.64z" fill="#d3b714"></path><path d="M1196.52 284.03L1198.42 284.03L1198.42 322.88L1196.52 322.88z" stroke="#037b0b"></path><path d="M667.32 514.23L675.25 514.23L675.25 569.74L667.32 569.74z" stroke="#037b0b"></path><path d="M196.44 365.63 a23.26 23.26 0 1 0 46.52 0 a23.26 23.26 0 1 0 -46.52 0z" fill="#d3b714"></path><path d="M1234.1 353.08L1237.59 353.08L1237.59 406.46L1234.1 406.46z" fill="#e73635"></path><path d="M457.02 155.86L484 155.86L484 182.84L457.02 182.84z" fill="#d3b714"></path><path d="M390.56 62.38 a4.69 4.69 0 1 0 9.38 0 a4.69 4.69 0 1 0 -9.38 0z" stroke="#e73635"></path><path d="M1029.74 125.76 a54.25 54.25 0 1 0 108.5 0 a54.25 54.25 0 1 0 -108.5 0z" stroke="#e73635"></path><path d="M173.13 124.78 a49.63 49.63 0 1 0 99.26 0 a49.63 49.63 0 1 0 -99.26 0z" stroke="#037b0b"></path><path d="M1192.05 160.02L1236.27 160.02L1236.27 204.24L1192.05 204.24z" stroke="#d3b714"></path><path d="M224.71 34.27L247.04 34.27L247.04 81.28L224.71 81.28z" fill="#037b0b"></path><path d="M423.79 452.01 a50.43 50.43 0 1 0 100.86 0 a50.43 50.43 0 1 0 -100.86 0z" fill="#d3b714"></path></g><defs><mask id="SvgjsMask1000"><rect width="1440" height="560" fill="#ffffff"></rect></mask></defs></svg>